<?xml version="1.0" encoding="UTF-8" standalone="no"?>
<svg
   xmlns:dc="http://purl.org/dc/elements/1.1/"
   xmlns:cc="http://creativecommons.org/ns#"
   xmlns:rdf="http://www.w3.org/1999/02/22-rdf-syntax-ns#"
   xmlns:svg="http://www.w3.org/2000/svg"
   xmlns="http://www.w3.org/2000/svg"
   xmlns:sodipodi="http://sodipodi.sourceforge.net/DTD/sodipodi-0.dtd"
   xmlns:inkscape="http://www.inkscape.org/namespaces/inkscape"
   width="200"
   height="200"
   viewBox="0 0 25 25"
   fill="none"
   version="1.1"
   id="svg36"
   sodipodi:docname="logo_applied.svg"
   inkscape:version="1.0.2 (e86c870879, 2021-01-15, custom)">
  <metadata
     id="metadata42">
    <rdf:RDF>
      <cc:Work
         rdf:about="">
        <dc:format>image/svg+xml</dc:format>
        <dc:type
           rdf:resource="http://purl.org/dc/dcmitype/StillImage" />
        <dc:title></dc:title>
      </cc:Work>
    </rdf:RDF>
  </metadata>
  <defs
     id="defs40" />
  <sodipodi:namedview
     pagecolor="#ffffff"
     bordercolor="#666666"
     borderopacity="1"
     objecttolerance="10"
     gridtolerance="10"
     guidetolerance="10"
     inkscape:pageopacity="0"
     inkscape:pageshadow="2"
     inkscape:window-width="3440"
     inkscape:window-height="1377"
     id="namedview38"
     showgrid="false"
     inkscape:zoom="23.827957"
     inkscape:cx="41.12025"
     inkscape:cy="14.978172"
     inkscape:window-x="-8"
     inkscape:window-y="-8"
     inkscape:window-maximized="1"
     inkscape:current-layer="svg36" />
  <path
     fill-rule="evenodd"
     clip-rule="evenodd"
     d="M 12.5,25 C 19.403561,25 25,19.4036 25,12.5 25,5.59644 19.403561,0 12.5,0 5.5964496,0 0,5.59644 0,12.5 0,19.4036 5.5964496,25 12.5,25 Z M 5.603012,14.8873 V 14.622 l 5.33817,-10.27849 h 3.18305 L 19.429244,14.622 v 0.2653 H 15.980976 L 12.565938,7.89125 h -0.09948 L 9.0181334,14.8873 Z m 8.687584,4.0119 c 0,0.9888 -0.801632,1.7905 -1.790491,1.7905 -0.988859,0 -1.790387,-0.8017 -1.790387,-1.7905 0,-0.9888 0.801528,-1.7905 1.790387,-1.7905 0.988859,0 1.790491,0.8017 1.790491,1.7905 z"
     fill="#1070fc"
     id="path34"
     style="stroke-width:1.02386" />
</svg>
